<?xml version="1.0" encoding="UTF-8"?>
<svg version="1.1" viewBox="0 0 682.67 682.67" xml:space="preserve" xmlns="http://www.w3.org/2000/svg" xmlns:cc="http://creativecommons.org/ns#" xmlns:dc="http://purl.org/dc/elements/1.1/" xmlns:rdf="http://www.w3.org/1999/02/22-rdf-syntax-ns#"><metadata><rdf:RDF><cc:Work rdf:about=""><dc:format>image/svg+xml</dc:format><dc:type rdf:resource="http://purl.org/dc/dcmitype/StillImage"/></cc:Work></rdf:RDF></metadata><defs><clipPath id="h"><path d="m2560 0c1413.8 0 2560 1146.2 2560 2560s-1146.2 2560-2560 2560-2560-1146.2-2560-2560 1146.2-2560 2560-2560z" clip-rule="evenodd"/></clipPath><clipPath id="g"><path d="m0 0h5120v5120h-5120z"/></clipPath><clipPath id="f"><path d="m3248.6 2736c-183.49 0-277.25-144.42-277.25-362 0-205.66 101.38-360.04 277.25-360.04 198.89 0 273.45 182.02 273.45 360.04-0.14 185.9-93.84 362-273.51 362m-487.51 539.96h217.97v-522.15h3.85c59.28 98.87 183.55 160.21 294.46 160.21 311.63 0 462.74-245.35 462.74-544.05 0-274.84-133.84-533.97-426.43-533.97-133.85 0-277.25 33.54-342.29 168.09h-3.78v-140.51h-206.53v1412.4l0.01 0.03" clip-rule="evenodd"/></clipPath><clipPath id="e"><path d="m0 0h5120v5120h-5120z"/></clipPath><clipPath id="d"><path d="m4543.9 2544c-17.22 124.62-105.15 191.92-225.61 191.92-112.87 0-271.54-61.35-271.54-371.91 0-170.13 72.64-350.15 261.97-350.15 126.18 0 214.11 87.14 235.18 233.51h217.97c-40.16-265.06-198.84-411.43-453.15-411.43-309.78 0-479.95 227.42-479.95 528.07 0 308.56 162.53 549.89 487.6 549.89 229.44 0 424.54-118.68 445.5-369.91h-217.61l-0.36 0.01" clip-rule="evenodd"/></clipPath><clipPath id="c"><path d="m0 0h5120v5120h-5120z"/></clipPath><clipPath id="b"><path d="m1999 1866.6h-1634.9l763.46 1409.3h1634.9l-763.47-1409.3" clip-rule="evenodd"/></clipPath><clipPath id="a"><path d="m0 0h5120v5120h-5120z"/></clipPath></defs><g transform="matrix(1.3333 0 0 -1.3333 0 682.67)"><g transform="scale(.1)"><g clip-path="url(#h)"><g clip-path="url(#g)"><path d="m0 0h5170v5170h-5170z" fill="#f5f5f5"/></g></g><g clip-path="url(#f)"><g clip-path="url(#e)"><path d="m2711 1786h1079v1540h-1079z"/></g></g><g clip-path="url(#d)"><g clip-path="url(#c)"><path d="m3778.8 1786h1033.1v1178h-1033.1z"/></g></g><g clip-path="url(#b)"><g clip-path="url(#a)"><path d="m314.08 1816.6h2498.3v1509.3h-2498.3z"/></g></g></g></g></svg>
