<svg viewBox="0 0 800 800" xmlns="http://www.w3.org/2000/svg">
<defs>
<radialGradient id="a" cx="400" cy="400" r="762.5" gradientUnits="userSpaceOnUse">
<stop stop-color="#fff" offset="0"/>
<stop stop-color="#fcfcfc" offset=".39"/>
<stop stop-color="#f2f2f2" offset=".7"/>
<stop stop-color="#e1e1e1" offset=".98"/>
<stop stop-color="#e0e0e0" offset="1"/>
</radialGradient>
</defs>
<title>Tiger</title>
<path d="m198.52 192.76c-12.11-15.13-24.71-39.85-11.1-64.56s39.84-35.8 49.93-33.79 29.75 11.1 28.24 30.26-27.23 20.18-34.29 2.52c0 0-9.08 46.4 76.65 68.09 0 0-36.81-19.67-42.36-46.4 0 0 21.69 0 19.67-29.25 0 0 17.15 22.19 38.83 32.28s24.21 12.6 24.21 12.6l-11.1-17.14s-6.55-7.06 5.05-11.6 41.35-7.06 68.59-3c0 0-44.39-17.65-91.79 0 0 0-21.18-18.15-31.27-34.29s-34.8-27.74-55-25.72-64.55 24.71-64.55 73.12 36.81 58 40.34 82.21c0.03-0.03 2.05-20.21-10.05-35.33z"/>
<path d="M630.72,332c0-21.18-2-28.75-2-28.75C640.3,277,603,235.62,592.89,231.08a62.86,62.86,0,0,1-17.65-12.6c33.79-53.46-2-88.26-19.16-91.79s-34.3,3-39.34,15.13A35.53,35.53,0,0,1,501.61,159c-29.25-16.14-75.14-24.72-75.14-24.72l14.12,5.55c-5,8.58,5,11.1,5,11.1a3.93,3.93,0,0,1,.51-6.05c30.76,4,65.56,24.2,65.56,24.2-4.54-1.51-3.53,2.52-12.61,3.53s-13.62-10.08-13.62-10.08c-2,20.17,17.15,26.73,17.15,26.73-.5-4.54,3.53-7.57,3.53-7.57,7.06-6.56,26.73,5.55,28.24,9.58s-2.52,10.59-10.08,8.07-16.65-1-16.65-1,6.56,1,8.58,5,16.14,7.56,20.17,5.54,8.07-3,15.63.51,8.58,11.09,1.52,11.09A13.81,13.81,0,0,1,543,216c-2,18.66,21.18,15.64,21.18,15.64,32.27,7.06,43.37,25.21,43.37,25.21s-3-3.53-16.14-3.53-31.27-13.11-31.27-13.11,10.09,21.18,28.24,21.69,28.75,10.08,33.79,24.71-8.07,21.68-8.07,21.68c-.5-6.05,6.06-13.11,1.52-24.2s-20.68-12.61-20.68-12.61c15.63,6.05,17.65,19.16,13.62,23.2S606,311.77,606,311.77c-3-1-18.16-11.09-18.16-11.09,2,8.57,15.63,19.67,23.7,23.2s30.77,27.23,30.77,27.23c3.53-6.56,23.7,14.63,23.7,14.63,36.69,40.22,39.67,60.68,39.85,65.13.41-28.32-25.32-51.17-33.8-65.13C663.5,351.61,630.72,332,630.72,332ZM562.47,210.41s7.06-16.81,1.34-28.92c0,0-4.7,19.5-12.44,22.19l-6-5.38s13.78-14.12,13.45-20.17c0,0-12.1-1.35-17.48-8.74s-4-9.75.33-15.47,10.42-7.39,18.16-.67c0,0-2-11.43-15.47-10.42S519.1,164,537.92,177.12c0,0,2,6.39-2,6.73a9.14,9.14,0,0,1-6.73-2.36S510,164.35,505.31,161c0,0,9.41,0,12.1-5s14.46-20.85,29.93-17.48,22.86,10.76,18.15,20.17-13.78-.67-13.11-2.69c0,0-5.38,8.07-.67,14.12s14.46,5.72,16.81,4.37,14.45,5,1.34,38.67C569.86,213.1,566.84,216.46,562.47,210.41Z"/>
<path d="m705.87 430.87v0.93a8.12 8.12 0 0 0 0-0.93z"/>
<path d="M235.84,107c-13.62.51-38.33,13.62-38.33,49.42s24.21,51.44,24.21,51.44c5-6.55,23.2-5,23.2-5,34.29,1.51,43.87,23.2,41.85,44.38s-26.22,20.17-26.22,20.17c36.31,12.61,42.87-15.63,42.87-15.63,10.08-48.41-12.11-50.43-35.31-54.47s-54.46-20.17-54.46-50.93S235.84,107,235.84,107Z"/>
<path d="m231.11 596.46 1.7-3.28a5.8 5.8 0 0 0-1.7 3.28z"/>
<path d="m256.49 605.2 0.53-0.42a1.49 1.49 0 0 0-0.53 0.42z"/>
<path d="M298.37,622.43s-10.59-1-14.12,1.52c0,0,6.4-9.38,9-10.89l-22.1,7.86s11.6-14.63,8.57-26.73c0,0-7.56,15.63-9.08,16.64,0,0,0-6.88,1.6-9.81L255,616.38s-.42-9,1.49-11.18l-9.05,7.15S249,600.24,252,595.2c0,0-10.09,4.54-15.13,11.09l3-16.64-9.58,22.7s-.62-10.26.82-15.89l-5.36,10.34-.5-20.17s-5.55,19.66-7.57,19.66-11.6-15.12-11.6-40.34c0,0-5,32.78-7.56,34.29,0,0-2-23.2-.51-29.75,0,0-5,12.61-5,15.63,0,0-4-14.62,5.55-30.76,0,0-9.58,6.56-16.14,27.74,0,0-2.52-23.71,16.14-54.47,0,0-12.61,9.58-18.16,22.19,0,0,11.1-33.28,18.16-43.37a125.5,125.5,0,0,0-31.27,47.91s-2.52-18.66,4-29.76l-16.64,21.18s3.53-38.32,26.23-64c0,0-17.15,7.06-28.75,20.67,0,0,5.55-26.22,30.26-61.52,0,0-30.26,17.65-41.86,34.8,0,0,8.07-35.81,29.25-55,0,0-17.65,8.57-30.76,21.68,0,0,27.74-36.81,41.86-45.39,0,0-11.6-.5-30.26,16.14,0,0,38.33-34.8,47.91-69.6,0,0-24.71,24.72-51.44,35.81,0,0,8.07-21.68,26.73-26.22,0,0-10.59-6.56-30.77,4.54A62.88,62.88,0,0,1,166.24,340C181.37,333,195.49,320.35,198,314.8c0,0-27.23,15.13-43.37,14.12,0,0,17.15-9.58,20.68-19.16,0,0-12.61,6.05-19.16,6.05,0,0,43.37-34.8,56-51.44,0,0-32.27,21.18-51.94,24.71,0,0,47.41-26.22,47.41-51.44,0,0-7.57,16.14-37.83,34.29s-54.46,36.31-58.5,46.4A58.58,58.58,0,0,1,133,306.73c13.61-4,21.68-6.56,21.68-6.56s-41.86,37.32-49.42,68.09c0,0,17.15-23.71,29.25-27.74,0,0-9.58,14.12-10.59,21.18s-21.69,53.46-29.76,58.5c0,0,25.72-18.15,31.27-30.26,0,0-4.54,10.59-7.56,15.64S99.17,436.34,99.17,451c0,0,12.1-19.16,17.14-21.18,0,0-13.61,27.24-11.6,42.37,0,0,13.62-29.76,24.21-31.78,0,0-3,29.76-21.18,63,0,0,15.13-9.07,22.69-26.22,0,0-5.54,35.81-18.66,58,0,0,23.71-28.25,28.25-28.25,0,0-14.63,31.78-4.54,53.46,0,0,1-25.72,14.12-37.82,0,0-1,18.15-3.53,24.71s-9.58,22.19-5,36.81c0,0,3.53-18.66,12.1-24.2,0,0-6.56,31.27,4.54,41.35A39.41,39.41,0,0,1,165.23,571s3,29.25-3,43.88c0,0,8.57-8.58,9.58-21.18,0,0-1,26.73,16.64,37.82,0,0-10.08-26.22-3.53-31.27,0,0,.51,24.71,12.61,31.27,0,0-7.06-19.67-3-26.73,0,0,10.59,25.72,7.06,34.3,0,0,6.56-9.08,4.54-40.85,0,0,13.11,20.17,4.54,39.33,0,0,7.06-4.54,8.57-19.16l2,17.65s10.59-21.18,18.16-21.69c0,0-7.06,10.09-6.05,16.65,0,0,10.08-13.12,15.12-13.12,0,0,1,13.12-1,18.66,0,0,9.07-19.66,14.62-19.66,0,0-.5,10.08-5,13.11l22.69-8.58s-11.09,15.13-11.09,18.66C268.62,640.08,286.77,622.94,298.37,622.43Z"/>
<path d="m272.23 601 1.43-1.28a2.21 2.21 0 0 0-1.43 1.28z"/>
<path d="m293.24 613.06 0.59-0.21a1.32 1.32 0 0 0-0.59 0.21z"/>
<path d="M332.16,402.55c53.46-2,61-32.28,61-32.28-16.13,14.13-41.85,16.14-55.47,14.63s-26.23,4.54-26.23,4.54c2.53-11.6,8.58-29.76,41.36-44.89s39.34-44.88,39.34-44.88c-8.07,20.17-35.31,19.67-39.85,18.66s-30.76-3-30.76-3c-31.27,1-42.36,14.12-51.94,32.28-8.88,16.81-21.19,23.2-21.19,23.2,40.35.5,62.54-25.72,62.54-25.72-30.26-14.63,10.59-22.7,10.09-7.57s-36.31,38.84-57.5,44.38-37.31,21.69-37.31,21.69c-7.07-107.92,78.67-115,99.85-130.11s17.65-34.3,17.15-64.56S393.18,165,393.18,165c-33.79-2.52-29.25,11.09-60,9.58s-43.88-39.84-43.88-39.84-3.53,22.19,8.07,31.77,15.13,16.14,17.15,20.68,1.51,25.21,10.59,41.35,1,25.22-24.71,42.36-40.85,9.59-46.4-.5,8.58-27.23,8.58-27.23c8.06-10.59,0-27.74-17.15-27.74s-24.71,18.15-24.71,18.15c5-6.55,14.12-7.06,14.12-7.06,16.64-.5,7.56,37.32-22.19,52-29,14.25-27.23,34.29-27.23,34.29s9.58-24.71,25.72-24.71,13.11,8.07,13.11,8.07c-3,25.72-50.94,47.91-50.94,47.91,8.07,0,38.83-10.09,38.83-10.09-6,2-13.61,26.23-22.69,59.51S158.68,449,158.68,449c26.73-11.1,43.87-39.84,43.87-39.84-.5,37.32-32.78,70.1-32.78,70.1,27.23-12.11,35.3-26.73,35.3-26.73-6,33.79-31.77,63-31.77,63,19.17-8.58,33.79-30.77,33.79-30.77-6.56,38.33,10.09,100.87,10.09,100.87,1-20.68,12.1-36.31,12.1-36.31-3.53,18.15,3.53,37.32,3.53,37.32,6.05-25.22,17.65-26.73,17.65-26.73-8.07,13.61-5,32.78-5,32.78,6.56-13.11,18.15-15.13,18.15-15.13C260,579.06,258,594.7,258,594.7l12.6-14.63c-4,4.54-6.55,22.19-6.55,22.19,10.09-17.15,21.68-23.7,21.68-23.7,5.05,10.59-2,28.24-2,28.24,18.66-12.1,12.61-45.89,12.61-45.89A28.38,28.38,0,0,1,276.69,569c2.52-1,8.07-9.58,8.07-9.58-18.66,0-28.25,9.08-28.25,9.08,1-15.63,26.23-23.7,26.23-23.7-22.7-9.08-42.87,5.55-42.87,5.55-6.55-8.07,0-25.72,0-25.72-9.08.5-13.11,13.11-13.11,13.11C206.59,415.16,285.26,393,285.26,393c-51.94,80.18,4.54,107.42,4.54,107.42C269.12,475.17,278.7,404.57,332.16,402.55Z"/>
<path d="m364.94 149.38c-14.62 8.58-23.7-9.07-23.7-9.07 1.51 21.18 25.21 19.16 33.79 10.59a20.52 20.52 0 0 1 19.16-5.55c-2.52 22.69 23.71 14.12 23.71 14.12s-15.13 4-13.12-7.56 19.67-5 24.21-2a31.33 31.33 0 0 0 10.59 4c-41.35-32.77-60.01-13.1-74.64-4.53z"/>
<path d="M437.56,366.24c17.66-3,14.63,12.1,14.63,12.1,43.37,1.52,54.47-13.61,54.47-13.61-21.19,7.06-39.34,4.54-42.37-2.52s-19.67-10.09-19.67-10.09c5.05-22.7-4.54-37.32-4.54-37.32,18.16,3.53,27.24,23.7,28.75,31.77s6.05,10.09,6.05,10.09c23.71,8.57,42.87-4.54,42.87-4.54-41.35,10.09-45.39-16.14-46.9-20.68s-6.56-10.08-6.56-10.08,4.54,0,9.08,7.56,9.58,18.16,30.76,19.67,17.65-7.06,34.3-5S558.6,361.2,558.6,361.2c-21.18-10.59-35.81,5-53,15.13s-18.16,10.59-36.31,10.08-31.78,16.65-31.78,16.65,13.62-12.61,32.78-9.08,48.42-19.17,57-24.21,23.71-8.57,32.28-4,24.21,3.53,24.21,3.53c9.58-1.52,26.72,7.56,26.72,7.56-9.58-14.62-23.7-16.14-23.7-16.14-20.68,1-22.19-2-24.21-8.07s-7.06-13.11-17.14-16.64-11.6-6.56-29.76-20.17-40.85,2.52-65.56-5-40.34-17.66-36.31-32.28-15.13-18.66-21.68-18.66-20.68-2-20.68-19.16,11.09-33.29,11.09-33.29c-27.73,16.14-33.79,63.54-27.23,77.16S388.14,279,393.69,277s11.6,0,7.06,12.6-2.52,30.77-2.52,30.77c3-11.6,23.7-19.67,31.77-2s-20.68,40.85-20.68,40.85S419.91,369.27,437.56,366.24Zm53.29-50.87h0c-.16.26-.32.55-.48.86a1.19,1.19,0,0,0-.08.16c-.16.31-.31.63-.45,1l-.09.21c-.15.36-.29.74-.43,1.14l-.06.2c-.14.42-.28.87-.4,1.34v0c-.12.48-.23,1-.34,1.52a1.84,1.84,0,0,1-.05.25c-.09.52-.17,1.07-.25,1.64,0,.11,0,.21,0,.32-.06.59-.12,1.2-.16,1.84,0,.09,0,.19,0,.29q-.06,1-.06,2.13a19.38,19.38,0,0,0,.1,2c0,.22.06.44.09.66.06.44.12.89.21,1.33.06.26.12.52.19.78s.19.8.31,1.2l.27.81c.14.38.28.77.43,1.15s.23.54.36.81.35.75.55,1.13.27.53.42.79.45.76.69,1.14.31.5.48.75c.28.41.59.82.9,1.23l.46.62s.06.09.1.13c-9-3.75-15.55-11.95-19.55-24.41A63,63,0,0,1,490.85,315.37Zm1.3.06.07-.1h0A44.82,44.82,0,0,1,504,316.67c-1.71,5-4.17,14.15-3.1,23.53l.07.7.67-.22c.43-.15,10.36-3.72,9.7-21.23a32.21,32.21,0,0,1,6.39,4.36h0c.07.42.12.81.18,1.22s.13.81.18,1.19.06.83.09,1.24.07.74.08,1.09,0,.77,0,1.15,0,.67,0,1-.06.71-.1,1.07-.05.61-.09.89-.12.65-.19,1-.09.56-.16.83-.18.58-.27.88-.14.51-.23.75-.21.5-.32.75-.2.49-.31.72-.21.37-.31.56a13.88,13.88,0,0,1-1.93,2.69c-.1.11-.19.23-.29.33s-.42.39-.63.58l-.39.36c-.2.17-.42.32-.63.48l-.44.34-.63.4c-.17.11-.32.22-.49.31l-.63.34-.52.28-.61.27-.55.25L508,345l-.54.2h0a33.61,33.61,0,0,1-11.76-1.51h0c-.29-.31-.53-.63-.8-.94s-.49-.56-.71-.84-.51-.69-.75-1-.41-.54-.6-.82-.44-.72-.66-1.09-.33-.53-.48-.8-.38-.75-.56-1.13-.27-.52-.38-.79-.3-.79-.45-1.18-.2-.51-.28-.76c-.14-.42-.23-.84-.34-1.26-.06-.24-.14-.47-.19-.71-.09-.45-.15-.91-.21-1.37,0-.21-.08-.41-.1-.62a19.34,19.34,0,0,1-.11-2c0-.44,0-.86,0-1.28,0-.14,0-.27,0-.41s0-.53,0-.79,0-.33,0-.5,0-.43.06-.64,0-.33.05-.49,0-.39.07-.58.05-.32.07-.48.05-.36.08-.53l.09-.46.09-.48c0-.16.07-.3.1-.45s.07-.3.11-.44.07-.28.11-.42l.11-.41.12-.39.12-.38.13-.37.13-.34c0-.12.09-.23.13-.35s.09-.21.14-.32.09-.21.14-.31l.13-.3.15-.28a2.44,2.44,0,0,1,.14-.28,2,2,0,0,1,.14-.25l.15-.27.13-.22c.05-.08.1-.17.16-.25Zm27.21,11.89,0-.38c-.05-.53-.11-1.07-.19-1.63,0-.08,0-.15,0-.23a39.35,39.35,0,0,1,9,14.54,55.63,55.63,0,0,1-17.25,5.25l0,0,.78-.46.17-.11c.25-.15.49-.32.73-.49l.09-.06c.26-.18.52-.38.77-.59l.18-.14c.26-.22.51-.44.76-.68l.05,0c.24-.23.46-.46.69-.71l.17-.18c.23-.26.46-.53.68-.82l.11-.15c.19-.25.38-.52.56-.8l.13-.19c.2-.32.39-.64.57-1l.12-.23c.16-.32.31-.64.46-1l.07-.16c.16-.38.3-.77.43-1.17a2.81,2.81,0,0,0,.1-.31c.13-.41.25-.84.35-1.28v-.05c.1-.44.19-.9.26-1.36,0-.12,0-.24.05-.36.07-.48.12-1,.15-1.48,0-.08,0-.17,0-.25,0-.46,0-.94,0-1.43V329C519.43,328.48,519.4,327.91,519.36,327.32Z"/>
<path d="M312,285.05c-71.61,24.2-78.17,98.84-78.17,98.84,47.91-112,126.08-71.61,126.08-71.61C387.64,299.17,391.67,284,391.67,284S374,298.66,346.28,298.66,312,285.05,312,285.05Z"/>
<path d="m683.17 438c-32.95-31.6-46.06-5-46.06-5 18.49-18.83 41 4.37 41 4.37s2.69 7.06 10.43 2.69 16.47 2 1.34 16.47-21.18 10.09-21.18 10.09c8.41-24.88-12.1-31.27-27.91-31.27s-22.86-21.18-22.86-21.18c-0.67 10.09 8.41 24.88 23.54 33.62s10.76 32.28 10.76 32.28c-11.43 2.35-21.86-13.45-21.86-13.45-3.7 10.76 15.47 21.18 15.47 21.18-7.4 5.72-17.15-2-29.93 7.73s-25.55 7.06-25.55 7.06c-5.71-10.08-13.45-10.08-26.56-14.79s-19.8-19.52-19.8-19.52 20.18-3.36 34.3 13.79 44 4.36 44 4.36c-17.48 5.72-36-4.36-43.37-14.45s-36.65-14.46-36.65-14.46c0.68-2.35 17.82-7.39 17.82-7.39-78.66-1.69-135.1 83.38-135.1 83.38-2.7-10.76 7.73-35 7.73-35-37 49.09-28.58 76.66-23.87 86.07s21.52 26.56 16.14 67.24 37.65 39.34 37.65 39.34c-26.22-19.16-23.87-36.65-23.87-36.65 0-11.43 5-10.76 5-10.76 12.78 32 38 26.23 38 26.23s19.16-2.69 26.89 4 26.56 0.34 26.56 0.34c2 18.15-13.11 27.57-13.11 27.57 0.67-1.68-0.34-5.72-0.34-5.72-4.37 10.76-23.19 19.17-23.19 19.17l2.35-5.38c-0.67-1-8.41 1-8.41 1-4.7-3-11.09 3.7-20.17-0.33s-42.36-3.63-42.36-3.63l6.39-4.71c-11.77-5.71-17.49-12.1-17.49-12.1 1.35 1 8.41 2 8.41 2-8.07-6.39-14.12-18.83-14.46-37s-10.08-33.62-34.29-63.2-17.82-77.67-17.82-77.67c-16.47 30.26 0 62.2 0 62.2-23.87-11.1-21.85-31.27-21.18-34.29s5.38-19.5-5-30.6-7.4-21.52-7.4-21.52c9.08-43.7 51.1-64.88 77.33-75s26.22-30.6 26.22-30.6-8.4 20.18-46.73 26.9-58.84 15.8-73.63 28.24-24.55 45.05-8.07 63.88 13.72 24.26 13.72 24.26c-6.39-11.09-28.57-14.79-39-17.15s-32.61 0-32.61-33.95 15.8-52.79 15.8-52.79c-62.2 53.79-2.69 106.24-2.69 106.24 10.43-1.34 41.36-2.69 57.16 19.17s4 36.64 4 36.64c-1.66-32.95-32.56-48.07-32.56-48.07 39 34.29 6.39 70.26 6.39 70.26 9.75-2.68 17.48-11.76 17.48-11.76 1 32.27-35.64 45.72-35.64 45.72 16.14 4 38-18.15 38-18.15-2.69 13.78-26.57 25.89-26.57 25.89 19.17 4.37 41.7-25.56 41.7-25.56 1.34 13.11-17.15 26.56-17.15 26.56 17.18-2.32 29.06-15.74 31.93-19.3-4.51 6.32-6 21-6 21s15.46-34.63 36-34.29 26.9 23.2 29.59 35.64 9.75 25.55 9.75 25.55c-2-3.36-9.42-2-9.42-2 6.39 3.36 11.44 12.78 11.44 12.78-1.35 0.34-9.08-3.7-9.08-3.7 2.35 6.39 12.1 6.73 12.77 9.08s-12.44 3-12.44 3c13.79 2.35 20.18 3.69 19.84 5.71s-7.73 4.37-7.73 4.37c2.69-0.67 12.77 3.7 12.77 3.7-2.35 0.34-6.38 8.07-6.38 8.07 23.19-13.45 43.37-7.73 43.37-7.73 0 1.68-11.43 6.38-11.43 6.38 2 3.37 13.44 0.34 16.13-1.68s10.76-1.34 10.76-1.34c-0.67 1.34-11.77 7.4-11.77 7.4 8.41 1.68 21.86-6.39 21.86-6.39 0 2.69-9.75 10.42-9.75 10.42 20.84-2.69 35.3-21.86 35.3-21.86 0.67 8.07-7.39 15.47-7.39 15.47 17.48-8.07 27.9-26.89 27.9-26.89l-0.34 5.37c14.12-15.13-7.06-36.64 13.45-45.72s29.25-34.3 29.25-34.3c-30.26 14.12-37.32 10.09-37.32 10.09 9.08-17.15-5-34-16.14-39.33s-17.23-28.93-17.23-28.93c3.7-15.13 34.29-37.65 34.29-37.65 2 13.78-9.41 31.26-9.41 31.26 29.92-8.4 42.7-48.75 42.7-48.75 8.06 0.34 6.39 15.13 6.39 15.13 4-0.33 10.42-8.4 10.42-8.4 2 6.72 0.33 17.14 0.33 17.14 5-0.67 19.5-13.44 19.5-13.44s-1.68 5.37 0 5.71 6.78-4.71 6.78-4.71c2.69 26.23-6.05 44.38-6.05 44.38 21.51-2.35 32.94-46.06 32.94-46.06 6 1.68 14.8-16.14 14.8-16.14 2.35 2.69 8.07 1 8.07 1 30.24-23.88 29.55-48.4 29.55-48.4 3.69-3.03 4.69-16.48 4.69-16.48-6-2.35-21.83 2-21.83 2zm-256.87 121c11.43 0 6.73 4.7 6.73 4.7s5.71 2.36 4.7 5.72-8.74 5.71-8.74 5.71c-1.99-3.3-2.69-16.07-2.69-16.07zm3.7 19.83s7.4-0.33 10.42 1.35c0 0-4 6.72-6.72 6.39s-3.7-7.68-3.7-7.68zm12.77 26.56c-4.7-2-6.72-13.45-6.72-13.45 9.08-0.67 9.08 4 9.08 4s5.38 0 4.37 3.36-6.73 6.15-6.73 6.15zm36 46.4a12.42 12.42 0 0 1-4.77-11.03s23.87 1 40.68-11.77c0.04 0.01-17.44 22.19-35.93 22.86zm13.45 9.08s10.76-8.07 19.16-6.72c-0.02 0.06-4.72 6.78-19.18 6.78zm18.49-0.67s6.05-6.39 11.43-6.73c-0.02 0.06-4.73 6.79-11.45 6.79zm12.44-0.34s4.71-6 8.74-6c-0.02 0.01-3.72 6.06-8.76 6.06zm10.09-0.67s3-3.37 4.7-3.37a4.5 4.5 0 0 1-4.72 3.43zm37.65-29.92s-21.52 26.55-33.62 18.49c0 0 6.14-5.27 8.88-6-1.52 0.17-5.82 0.23-7.2-4.46a75.12 75.12 0 0 0 31.92-7.97zm-48.43-34.57c1.68 1.68 18.83 10.08 16.81 22.86s-18.16 11.09-18.16 11.09c4.37-7.39 0-12.1 0-12.1-24.2 21.52-47.74-10.76-52.78-24.21s-18.16-19.16-18.16-19.16c9.42 7.4 15.13 21.18 18.83 37s13.11 22.19 13.11 22.19c-2.35 3.7-11.77 3-11.77 3-3.69-14.8-23.87-22.53-23.87-22.53 10.09-8.07 9.08-16.81 9.08-16.81s-5.38-0.67-6.05-3-8.74-6.38-8.74-6.38 5-7.06 5-8.75-8.07-2-8.07-2 4.71-7.4 5.38-9.42-5.38-5-5.38-5l1.68-3.7c-0.63-1.78-7.37-3.78-7.37-3.78 4.7-20.84 20.84-27.9 29.25-25.21s18.82 16.81 21.18 31.26 15.8 23.54 15.8 23.54c-7.06-5.38-11.77-19.84-10.09-28.58s-11.43-24.88-11.43-24.88 21.86 9.08 27.24 32.61 16.83 30.26 18.51 31.96zm-15.13-49.43s-2.69-5.38 12.1-18.83c0 0-7.73 2-10.76 5.72s-10.42 9.75-15.13 3 11.46-18.8 11.46-18.8-8.74 3.36-10.76 6-6.38 8.4-11.09 5-6.39-3.7-6.39-3.7 4.37-10.42 22.53-23.19c0 0-19.16 10.08-22.53 13.11s-12.44 11.43-19.83 7.06c0 0 48.75-41 74.3-42 0 0 0.67 4-44.05 39 0 0 48.08-30.26 54.14-29.58s-13.82 15.52-24.58 21.94-15.13 17.82-15.13 17.82 43-36 46.06-17.82c0 0-36.31 26.19-40.34 35.27zm40.34-5s12.78-28.91 11.77-48.42c0 0 14.12 9.08 14.46 11.44 0-0.04-10.09 27.86-26.23 36.94zm39.51-23.37s0.33-6.72-0.34-7.39c0 0 5.88 0.16 6.22 1.17a85.46 85.46 0 0 1-5.88 6.18zm14.12 5.55c1-1.68 2.18-11.77 2.18-11.77 0-0.84 7.23-4.37 7.23-4.37 0.17 8.2-9.41 16.1-9.41 16.1zm35-23c-3.36 9.75-8.06 12.1-8.06 12.1 2.14-14.19 8.02-12.17 8.02-12.17zm-18.15 16.47c1.18-2.85-0.67-12.6-0.67-12.6a17.24 17.24 0 0 1 9.24-2.69c0.47 4.97-8.61 15.22-8.61 15.22zm10.09 30.43s4.2-19.5 1.85-32.28c0 0 4.2-0.83 4.36-2.18 0 0 4.55 2.86 7.74 2.52-0.04-0.07-2.19 18.42-13.99 31.87zm11.09-35.64s-0.67-8.4-0.5-11.26c0 0 5.71-1 6.05 0.17-0.04-0.07-4.24 10.18-5.59 11.02zm11.94 0.34s1.17-10.93 0.16-13.11c0 0 6.89 0.33 7.23 1.34-0.04-0.07-5.58 10.72-7.43 11.72zm25-20.85c-2.69 2-6.72 0.84-6.55-1.85s15.46-13.44 15.46-13.44c-0.84-1.52-10.75 3.69-10.75 3.69 0.84-6.21 21-21.51 21-21.51 2.19 16.4-16.43 31.03-19.16 33.04z"/>
<path d="m478.41 170.73c-4.7-19.83-28.91-16.81-28.91-16.81 1.35 5.38 11.1 8.74 15.13 9.42s13.78 7.39 13.78 7.39z"/>
<path d="m434.37 176.11c-4-2.35-10.42 0.68-10.42 0.68 1.68 14.79 0.33 26.89-11.43 32.27s-24.88 1.35-24.88 1.35c23.2 15.46 40 3 45.39-8.41s16.8-13.78 30.93-14.12 38.66 11.12 38.66 11.12c-39.34-38.67-61.53-37.32-61.53-37.32 23.54 8.74 25.56 19.83 25.56 19.83-14.8 3.34-28.25-3.04-32.28-5.4z"/>
<path d="m381.58 183.51s21.52-9.75 21.86 4.37-19.84 6.05-22.19 4.37-30.25-14.46-31.61 39.67c0 0 6.06-30.59 20.85-30.59s17.15 8.74 36.65 0-2.7-26.23 17.14-31.61c0 0 9.75-1.68 15.47-1 0 0-32.28-11.72-58.17 14.79z"/>
<path d="m455.22 210.74c7-12.1 23.53-14.12 23.53-14.12-40.35-13.45-35.3 18.49-51.44 29.59s-35.3 0.33-35.3 0.33c32.61 21.19 56.14-3.69 63.21-15.8z"/>
<path d="m503.63 207.72c-4-4-10.42-10.09-17.82-9.42s-25.55 22.19-38.66 33.29-31.27 9.08-31.27 9.08c27.23 15.12 50.43-10.43 58.5-15.81s10.76-8.07 36.31 3 36.31 5 36.31 5c-22.86-0.26-39.34-21.11-43.37-25.14z"/>
<path d="m418.57 259.16c20.17 5 35.64 12.1 46.06 30.93s40.68 15.8 40.68 15.8-14.79-2.69-19.5-14.79-19.16-11.1-20.51-28.24 41-28.92 41-28.92c-36-4-51.44 18.83-79.68 18.83s-36.31-20.51-36.31-20.51c1.36 10.09 8.09 21.85 28.26 26.9z"/>
<path d="m503.63 240c-25.55 3.7-32.95 24.88-32.95 24.88 14.12-3 18.49 11.43 20.85 20.51 2.08 8 26.54 20.54 32.13 23.31-5.17-2.92-19.33-14.67-19-19.61 0.33-5.38 1-14.46-3.36-19.5s-2-11.43-2-11.43c9.07-21.52 53.12-8.07 53.12-8.07-8.42-6.74-23.24-13.8-48.79-10.09z"/>
<path d="M523.66,308.69a8.3,8.3,0,0,0,1.15.56Z"/>
<path d="m448.83 284.37c-7.4-15.46-30.93-18.15-30.93-18.15 6.72 3 13.11 13.45 19.5 27.9s35.3 13.11 35.3 13.11c-12.1-3.02-16.48-7.39-23.87-22.86z"/>
<path d="m554.73 282.69c-19.16-20.84-37.65-18.15-37.65-18.15 32.27 11.43 19.83 28.57 19.83 28.57s-6.72 9.08-0.33 20.51 19.16 8.38 19.16 8.38c-27.56-19.47 18.16-18.46-1.01-39.31z"/>
<path d="m527.16 254.79s34 4.37 35.31 25.21 1 21.18 20.17 34.63c0 0-12.11-12.1-9.41-19.5s-1-16.14-8.75-26.56-27.9-13.78-37.32-13.78z"/>
<path d="m584.32 285.05c12.78 6.72 16.81 17.48 16.81 17.48s1-20.51-6.72-23.87c-7.46-3.25-24.62-13.38-26.73-21 0.89 3.96 5.32 21.44 16.64 27.39z"/>
<path d="m567.68 257.63c-0.06-0.24-0.11-0.49-0.15-0.72 0.02 0.09 0.08 0.37 0.15 0.72z"/>
<path d="m564.15 335.81c3.64-0.3 14.15 3.79 16.14 4.58-0.48-0.64-1.53-3.44-3.37-14.66-2.68-16.48-18.15-19.17-18.15-19.17 17.48 15.13 5.71 25.89-2.69 25.89s-25.89-14.79-25.89-14.79c15.81 22.53 29.92 18.49 33.96 18.15z"/>
<path d="m580.62 340.52-0.33-0.13c0.23 0.3 0.33 0.13 0.33 0.13z"/>
<path d="m418.57 317c-0.34 4.37-3.7 31.6-43.37 33.62-37.16 1.89-50.43 24.71-52 27.6 1.12-1.94 9.26-12.75 53-15.5 48.08-3.04 42.37-45.72 42.37-45.72z"/>
<path d="m323.24 378.21c-0.11 0.19-0.16 0.3-0.16 0.3s0.06-0.1 0.16-0.3z"/>
<path d="m582.54 328.07c8.31 8.31 20 10.81 20 10.81a21.63 21.63 0 0 0-4.33-18.12 12.44 12.44 0 0 1-1 10.14c-6.03 0.17-14.67-2.83-14.67-2.83z"/>
<path d="m626.92 348.18a8 8 0 0 0 5.82 5.66c0.5-11.64-22.94-22.78-22.94-22.78s15.79 12.3 17.12 17.12z"/>
<path d="m587.69 342.7s7.15 13.46 22.28 16.95 17.61 5.16 21.11 8.15a22.85 22.85 0 0 0 8.47 4.15c0.17-2.49-3.32-11.13-22.77-14.12s-29.09-15.13-29.09-15.13z"/>
<path d="m669 384.92c16.78 10.64 17.45 31.25 17.45 31.25s0.33 8.81 3 10.64c0 0 5.65-3 4.66-11.14s-12.14-25.6-21.61-32.08-21.98-15.79-24.14-22.59c0 0 3.82 13.28 20.64 23.92z"/>
<path d="m619.77 371s5.48 6.15 18.61 12.3 14.62 18.24 14.62 18.24c-7.64 0.17-17.12-4.82-19.28-11.64s-13.46-7.14-13.46-7.14 10.14 3.49 10.47 9.14 2.66 7.15 2.66 7.15c7.81 10.8 17.28 6.31 29.91 11.13a49.37 49.37 0 0 1 20 14.46c-0.37-6.64-8.3-15.45-15.3-18.45s-8-7.48-14.13-15.62a29.48 29.48 0 0 0-20.28-11.8c-6.34-0.83-13.82-7.77-13.82-7.77z"/>
<path d="m658.66 416.33s-23.1 2.5-33.07-19.44-37.07-19.12-37.07-19.12c22.1 4.49 26.76 9.31 33.41 26.26s36.73 12.3 36.73 12.3z"/>
<path d="m611.8 395.56c-10.47-1.67-12.31-4-30.76-16.29s-34.73 0-34.73 0c23.1-2.33 33.57 0.83 44.37 9.31s21.12 6.98 21.12 6.98z"/>
<path d="m580.38 389.24z"/>
<path d="m516.05 398.71c13.14 0.83 29.09-6.48 32.42-8.47s14.29-4.66 19.28-3a55 55 0 0 0 12.14 2 12.62 12.62 0 0 1-5-2.13c-12-6.65-33.24-0.83-39.22 3.66s-19.62 7.94-19.62 7.94z"/>
<path d="m543 403.37c16.79-8.81 33.41-1.33 43.22 3.16s15.12 1.66 15.12 1.66c-3.65-0.33-18.28-9-18.28-9-18.95-9.64-39.06-1.49-49.37 6s-38.23 11.13-38.23 11.13c12.62 0.84 30.73-4.14 47.54-12.95z"/>
<path d="m546.31 442.43c22.27-4.65 29.91-0.5 45.21 10.81a42.3 42.3 0 0 0 31.58 7.81c-5.66 0-21.28-3.66-30.25-15.13s-18.45-11.8-18.45-11.8 1.49-4.12 13.6-5.82 22.27 5.49 22.27 5.49c-12.8-20-39.23-11.31-57.68-0.5s-39.39 9.8-39.39 9.8 10.8 3.99 33.11-0.66z"/>
<path d="m627.25 479.16c-21.27 3.16-32.08-12-36.73-19.28s-29.59-2.49-29.59-2.49c15.79-0.17 21.28 8.14 34.24 18.78s32.08 2.99 32.08 2.99z"/>
<path d="m634.57 465.37c4.82 6.81 15.29 9.8 15.29 9.8s-4.32-4.48-9.14-15.29-15.13-12.46-25.1-12-22.11-10-22.11-10c1.33 3 8.48 10.31 22.61 12.63s13.63 8.04 18.45 14.86z"/>
<path d="m545.5 410.34a8 8 0 0 0 0.77-1.25c-0.09 0.16-0.34 0.6-0.77 1.25z"/>
<path d="m545.5 410.34c-5.63 7.75-30.34 20.81-51.22 21.12-22.11 0.33-37.07 13.13-41 20s-17.34 25.54-25.98 1.44 33.24-40.9 33.24-40.9c-45.88 5.16-47.87 38.07-47.87 38.07 6.48 5.65 3 21.77 3 21.77-19.45 8.81-37.56 37.9-37.56 37.9-14-44.72 34.24-84.44 34.24-84.44-55.52 21.44-56.52 68.48-56.52 68.48 14.17 10.81 17.78 34.22 17.78 34.22-4.66 34.57 5.82 44.05 5.82 44.05-8.48-14.79 4-31.42 6.31-33.74s3.33-7.48 3.33-7.48c6-62.5 50.19-57.68 53.52-55s15.79 1.66 15.79 1.66c0.16-8.15 4-35.07 40.22-40.89 30.88-4.94 43.77-21.48 46.9-26.26z"/>
<path d="m473.51 466.86c-4.16 11-15.13 19.12-15.13 19.12 3.82-0.33 24.27-15.13 30.25-23.94s19.61-10 19.61-10c-9.8-1.3-30.58 3.85-34.73 14.82z"/>
<path d="m519.38 385.25c-35.24 4-50.53 29.42-52.36 32.58a10.75 10.75 0 0 1-4.49 4.32c-20.11 3.49-20.27 17.79-20.27 17.79s7.48-12.64 25.43-13.8 20.31-32.08 45.71-37.07 24.93-13.46 24.93-13.46c-9.33 9.81-18.95 9.64-18.95 9.64z"/>
<path d="m445.58 480.66c-43.05 3-44.71 45.38-44.71 45.38 9.97-37.4 44.71-45.38 44.71-45.38z"/>
<path d="m417.69 648a6.86 6.86 0 0 0 0.8 1.5s-0.3-0.5-0.8-1.5z"/>
<path d="m401 588c-15.12-18.11-5.48-53-5.48-53-14.79 14.3-9.14 45-1.5 53.19s12.64 13 13.13 27.43c0.42 12.06 8 27.59 10.51 32.41-1.08-2.59-2.61-8.86-0.37-21.28 3.19-17.44-1.13-20.6-16.29-38.75z"/>
<path d="m462.27 669.84c-9.27-2.84-15.27-10.59-15.27-10.59s0.5 9.58 8.24 19.5 24 3.53 24 3.53c0.18-2.02-7.72-9.58-16.97-12.44z"/>
<path d="m496.4 683.12c-0.5-5.89-11.09-4.54-14.46 5.21s-14.45 16.67-14.45 16.67c17.14 1.66 29.42-16 28.91-21.88z"/>
<path d="m508.34 700.1c0.67 1-1 5.21-1 5.21a66.16 66.16 0 0 0 20.51-22.19c-16 3-23.71-1.51-23.71-1.51 2 5.21-6.55 25-6.55 25 4.02-0.8 10.75-6.51 10.75-6.51z"/>
</svg>
